HIERARCHY
ROOT Hips
{
  OFFSET -17.2352 91.2872 38.4635
  CHANNELS 6 Xposition Yposition Zposition Zrotation Xrotation Yrotation
  JOINT RightUpLeg
  {
    OFFSET -8.9458 -8.66707 0.101652
    CHANNELS 3 Zrotation Xrotation Yrotation
    JOINT RightLeg
    {
      OFFSET 0 -44.4227 1.3727
      CHANNELS 3 Zrotation Xrotation Yrotation
      JOINT RightFoot
      {
        OFFSET 0.253549 -42.0924 -1.46059
        CHANNELS 3 Zrotation Xrotation Yrotation
        JOINT RightToes
        {
          OFFSET 0.04 -4.41509 8.4991
          CHANNELS 3 Zrotation Xrotation Yrotation
          End Site
          {
            OFFSET -0.08 -0.137448 9.77979
          }
        }
      }
    }
  }
  JOINT Spine
  {
    OFFSET 0 11.8905 0
    CHANNELS 3 Zrotation Xrotation Yrotation
    JOINT Spine1
    {
      OFFSET 0 25.6574 0.127663
      CHANNELS 3 Zrotation Xrotation Yrotation
      JOINT HEad
      {
        OFFSET 0 8.73416 0.011341
        CHANNELS 3 Zrotation Xrotation Yrotation
        End Site
        {
          OFFSET -0.29 12.7742 2.51395
        }
      }
      JOINT LeftShoulder1
      {
        OFFSET 8.99 -0.362252 -0.22
        CHANNELS 3 Zrotation Xrotation Yrotation
        JOINT LeftArm
        {
          OFFSET 10.2827 -0.00337999 0.322123
          CHANNELS 3 Zrotation Xrotation Yrotation
          JOINT LeftForeArm
          {
            OFFSET 32.7669 0.099144 -1.42434
            CHANNELS 3 Zrotation Xrotation Yrotation
            JOINT LeftHand
            {
              OFFSET 27.5643 0.085362 1.02216
              CHANNELS 3 Zrotation Xrotation Yrotation
              End Site
              {
                OFFSET 16.7443 -0.6 1.50291
              }
            }
          }
        }
      }
      JOINT RightShoulder
      {
        OFFSET -8.99 -0.362252 -0.22
        CHANNELS 3 Zrotation Xrotation Yrotation
        JOINT RightArm
        {
          OFFSET -10.2827 -0.00338 0.322123
          CHANNELS 3 Zrotation Xrotation Yrotation
          JOINT RightForeArm
          {
            OFFSET -32.8971 0.099144 -1.42434
            CHANNELS 3 Zrotation Xrotation Yrotation
            JOINT RightHand
            {
              OFFSET -27.4921 0.085362 1.02216
              CHANNELS 3 Zrotation Xrotation Yrotation
              End Site
              {
                OFFSET -16.6312 -0.6 1.50291
              }
            }
          }
        }
      }
    }
  }
  JOINT LeftUpLeg
  {
    OFFSET 8.9458 -8.66707 0.101652
    CHANNELS 3 Zrotation Xrotation Yrotation
    JOINT LeftLeg
    {
      OFFSET 0 -44.4227 1.3727
      CHANNELS 3 Zrotation Xrotation Yrotation
      JOINT LeftFoot
      {
        OFFSET -0.253549 -42.0924 -1.46059
        CHANNELS 3 Zrotation Xrotation Yrotation
        JOINT LeftToes
        {
          OFFSET -0.04 -4.41509 8.4991
          CHANNELS 3 Zrotation Xrotation Yrotation
          End Site
          {
            OFFSET 0.08 -0.047448 9.77979
          }
        }
      }
    }
  }
}
MOTION
Frames:	10
Frame Time:	0.0166667
-17.2352 91.2872 38.4635 8.87993 -7.61364 42.3925 -10.5492 -37.0196 13.3257 31.3036 29.4098 -66.0678 -27.4337 -4.40911 -3.11412 0.0462048 0.000533403 0.662642 -4.04491 21.1752 5.19622 0.0215264 0.0420598 -0.077021 -5.43574 15.6829 8.87709 8.82781e-032 7.95139e-016 -6.36111e-015 -133.903 -43.8817 -72.3673 -122.339 81.1635 7.56116 -15.3961 14.5744 -9.20743 -22.5674 6.93221 39.0646 -128.594 -18.982 -171.86 136.961 19.4528 -5.56558 -38.3182 32.8654 31.7225 26.9872 -3.55 -17.5842 -60.8486 43.9382 46.8637 39.7227 7.34411 2.30359 -1.32763e-009 1.55999e-007 -4.87307e-009 
-16.8547 91.2882 38.4643 8.82197 -7.62641 42.3163 -10.7912 -37.0901 13.2762 31.687 29.692 -66.2853 -27.141 -4.65068 -3.10407 0.0462048 0.000533403 0.662642 -4.01979 21.1883 5.08151 0.361426 0.0899668 -0.465267 -5.43574 15.6829 8.87709 7.95139e-016 0 -0 -133.57 -44.0252 -73.0297 -122.578 81.1595 9.01439 -14.5713 15.045 -8.02134 -22.5674 6.93221 39.0646 -128.594 -18.982 -171.86 136.961 19.4528 -5.56558 -38.3182 32.8654 31.7225 26.8207 -3.30269 -17.5597 -60.8273 43.9112 46.9898 39.8318 7.1225 2.44511 -1.32763e-009 1.55999e-007 -4.87307e-009 
-15.8117 91.2906 38.4664 8.66302 -7.66139 42.1075 -11.4464 -37.2617 13.145 32.7089 30.4314 -66.862 -26.3429 -5.2913 -3.06322 0.0462048 0.000533403 0.662642 -3.95091 21.2243 4.76694 1.29329 0.22091 -1.53273 -5.43574 15.6829 8.87709 -7.95139e-016 7.95139e-016 6.36111e-015 -132.7 -44.4767 -74.8758 -123.305 81.142 13.0729 -12.5555 16.5233 -4.60884 -22.5674 6.93221 39.0646 -128.594 -18.982 -171.86 136.961 19.4528 -5.56558 -38.3182 32.8654 31.7225 26.3586 -2.61711 -17.4844 -60.7393 43.8275 47.3024 40.1294 6.53228 2.83475 -1.32762e-009 1.55999e-007 -4.87306e-009 
-14.2532 91.2942 38.4696 8.42549 -7.71354 41.7957 -12.404 -37.462 12.9612 34.1582 31.4485 -67.6691 -25.1614 -6.19165 -2.96975 0.0462048 0.000533403 0.662642 -3.84793 21.2779 4.29677 2.68597 0.416098 -3.13562 -5.43574 15.6829 8.87709 -7.95139e-016 -2.38542e-015 -3.18055e-015 -131.533 -45.2933 -77.7198 -124.515 81.0744 19.2607 -10.2908 19.2003 0.921247 -22.5674 6.93221 39.0646 -128.594 -18.982 -171.86 136.961 19.4528 -5.56558 -38.3182 32.8654 31.7225 25.6533 -1.57047 -17.3495 -60.5271 43.6759 47.6794 40.5713 5.69879 3.42025 -1.32763e-009 1.55999e-007 -4.87306e-009 
-12.4227 90.4261 38.4659 8.04833 -8.54539 40.693 -12.3083 -37.8523 12.1249 35.6607 33.1056 -67.7802 -27.443 -6.36642 -3.22713 0.0462048 0.000533403 0.662642 -3.03469 24.0531 -1.35945 4.40849 0.658 -5.11363 -5.2757 13.4124 12.0241 -5.29669e-031 3.18055e-015 9.54166e-015 -127.652 -39.2162 -85.0246 12.7 84.6165 -95.7807 -9.75644 12.2483 14.3034 -30.4234 1.19183 42.6401 -111.921 -16.0956 -170.849 136.094 24.369 -1.84725 -26.5254 28.2685 29.2408 25.5658 -0.603334 -17.9296 -59.986 45.7041 49.464 33.5401 3.56123 3.9548 -1.32762e-009 1.55999e-007 -4.87306e-009 
-10.3301 89.3072 38.3642 7.60293 -9.503 39.3893 -12.4349 -38.5578 11.2706 37.9397 35.1543 -68.6441 -29.5929 -6.66939 -3.36203 0.0462048 0.000533403 0.662642 -1.62729 26.8851 -8.0962 6.33614 0.926743 -7.34215 -5.59801 11.1262 16.362 -0 -3.18055e-015 -0 -123.427 -34.161 -93.4887 35.3143 75.0883 -92.0468 -2.64118 10.6728 4.1993 -30.9142 1.59002 36.5115 -111.403 -23.6058 -176.544 129.646 28.4795 1.8846 -15.8654 23.6775 29.3307 24.2507 1.07652 -17.7356 -58.6979 47.0444 50.8732 33.8017 2.43051 4.67911 -1.32763e-009 1.55999e-007 -4.87306e-009 
-8.06945 88.2527 38.2479 7.09869 -10.5334 37.9218 -12.5334 -39.1911 10.5408 40.2557 37.1341 -69.6866 -31.6922 -6.85069 -3.40796 0.0462048 0.000533403 0.662642 0.459655 29.5406 -15.7152 8.32541 1.20353 -9.66553 -6.37946 8.89609 21.5637 -3.97569e-016 -6.36111e-015 -1.59028e-015 -118.835 -30.3851 -102.592 33.1424 67.6907 -61.8863 -12.4324 -0.0712195 26.1183 -30.9305 2.82062 29.5699 -116.413 -32.5782 174.417 126.527 31.0218 3.67573 -10.2828 21.4837 29.0519 23.2039 2.61863 -17.4399 -58.233 48.1161 53.0044 32.1974 1.09554 5.44679 -1.32763e-009 1.55999e-007 -4.87307e-009 
-5.76732 87.2347 38.0765 6.5503 -11.5967 36.3339 -12.6531 -39.8192 9.85976 42.5811 39.0387 -70.8605 -33.7964 -6.92634 -3.36894 0.0462048 0.000533403 0.662642 3.37744 32.2916 -23.7631 10.2488 1.47123 -11.9271 -7.50178 6.27284 26.9277 -0 -6.36111e-015 -0 -113.689 -28.0562 -111.87 25.2345 57.2942 -28.2294 7.0234 15.7305 -0.494755 -29.9201 4.33461 21.7211 -127.613 -40.9938 160.991 125.507 32.7747 3.99164 -8.28814 19.965 28.9345 21.9456 4.24529 -16.7693 -57.8986 48.8962 55.2162 32.1626 0.102524 6.26929 -1.32763e-009 1.55999e-007 -4.87307e-009 
-3.54605 86.3291 37.8556 5.97122 -12.6591 34.6817 -12.6929 -40.3436 9.25384 44.6124 40.7403 -71.9105 -35.948 -6.82726 -3.26791 0.0462048 0.000533403 0.662642 7.20917 34.644 -31.9046 11.9737 1.72216 -13.9651 -9.00908 3.53791 31.9888 7.95139e-016 -6.36111e-015 3.18055e-015 -107.776 -27.8668 -119.854 22.6538 45.8814 -6.08192 -1.42605 12.8358 4.31468 -27.3222 5.98796 13.7791 -145.181 -46.2087 143.205 125.608 33.912 3.26325 -7.65848 19.2481 28.3322 20.8589 5.71542 -15.9554 -57.9607 49.5217 57.5524 31.6437 -0.774669 7.02643 -1.32763e-009 1.55999e-007 -4.87307e-009 
-1.53255 85.5309 37.58 5.37115 -13.6914 33.031 -12.5996 -40.7734 8.70314 46.2188 42.2128 -72.7275 -38.1899 -6.54161 -3.12385 0.0462048 0.000533403 0.662642 11.9933 36.6793 -39.4577 13.3653 1.9314 -15.601 -10.7962 0.56412 35.9218 -0 0 3.18055e-015 -105.873 -30.4823 -127.143 19.1059 32.9732 -3.09066 7.75656 20.2221 -9.2884 -23.5499 6.76655 6.48255 -164.542 -46.7271 125.271 127.711 29.6425 0.468359 -10.0367 23.2291 29.3865 19.906 6.99184 -15.0147 -58.2197 49.9935 59.7927 31.4345 -1.37625 7.67592 -1.32763e-009 1.55999e-007 -4.87307e-009 
